<svg xmlns="http://www.w3.org/2000/svg" viewBox="0 0 270 64" width="270" height="64" role="img" aria-label="ESS English Speaking Society">
  <!-- 吹き出しクラスター（プレースホルダ。添付の本ロゴに差し替え可） -->
  <g>
    <circle cx="16" cy="16" r="8" fill="#A8F1D0"/>
    <circle cx="50" cy="15" r="6.5" fill="#FF9F43"/>
    <circle cx="54" cy="34" r="5.5" fill="#34D399"/>
    <path d="M12 16h34a10 10 0 0 1 10 10v8a10 10 0 0 1-10 10H24l-9 8v-8h-3a10 10 0 0 1-10-10v-8a10 10 0 0 1 10-10Z" fill="#3BA7FF"/>
    <circle cx="20" cy="30" r="2.6" fill="#ffffff"/>
    <circle cx="29" cy="30" r="2.6" fill="#ffffff"/>
    <circle cx="38" cy="30" r="2.6" fill="#ffffff"/>
  </g>
  <!-- ワードマーク -->
  <text x="74" y="33" font-family="Poppins, Arial, Helvetica, sans-serif" font-weight="800" font-size="27" fill="#003B70" letter-spacing="0.5">ESS</text>
  <text x="75" y="50" font-family="Poppins, Arial, Helvetica, sans-serif" font-weight="700" font-size="10.5" letter-spacing="0.3">
    <tspan fill="#3BA7FF">English</tspan><tspan fill="#54708A"> </tspan><tspan fill="#34D399">Speaking</tspan><tspan fill="#54708A"> </tspan><tspan fill="#FF9F43">Society</tspan>
  </text>
</svg>
